<svg width="1440" height="67" viewBox="0 0 1440 67" fill="none" xmlns="http://www.w3.org/2000/svg">
<rect width="1440" height="51" transform="matrix(1 0 0 -1 0 51)" fill="#FEF8EC"/>
<rect width="1440" height="8" transform="matrix(1 0 0 -1 0 51)" fill="#07D6A4"/>
<rect width="1440" height="6" transform="matrix(1 0 0 -1 0 35)" fill="#07D6A4"/>
<rect width="1440" height="3" transform="matrix(1 0 0 -1 0 21)" fill="#07D6A4"/>
<rect width="1440" height="1.5" transform="matrix(1 0 0 -1 0 10)" fill="#07D6A4"/>
<rect width="1440" height="0.5" transform="matrix(1 0 0 -1 0 0.5)" fill="#07D6A4"/>
<rect width="1440" height="8" transform="matrix(1 0 0 -1 0 67)" fill="#FFC700"/>
<rect width="1440" height="8" transform="matrix(1 0 0 -1 0 59)" fill="#FF4400"/>
</svg>
