<svg width="40" height="40" viewBox="0 0 40 40" fill="none" xmlns="http://www.w3.org/2000/svg">
<path d="M17.6759 38.5L16.5509 33.999L16.2669 33.923C13.8089 33.265 11.5709 31.977 9.79392 30.199L9.58592 29.991L5.14092 31.262L2.81692 27.237L6.15192 24.012L6.07592 23.728C5.74092 22.475 5.57092 21.22 5.57092 20C5.57092 18.78 5.74092 17.525 6.07492 16.271L6.15092 15.987L2.81592 12.762L5.13992 8.737L9.58492 10.008L9.79292 9.8C11.5709 8.021 13.8089 6.734 16.2659 6.076L16.5499 6L17.6759 1.5H22.3229L23.4479 6.001L23.7319 6.077C26.1889 6.734 28.4269 8.022 30.2049 9.801L30.4129 10.009L34.8579 8.738L37.1819 12.763L33.8469 15.988L33.9229 16.272C34.2579 17.525 34.4279 18.779 34.4279 20C34.4279 21.22 34.2579 22.475 33.9239 23.729L33.8479 24.013L37.1829 27.237L34.8589 31.263L30.4139 29.991L30.2059 30.199C28.4289 31.978 26.1899 33.265 23.7329 33.923L23.4489 33.999L22.3239 38.5H17.6759ZM19.9999 12.036C15.6079 12.036 12.0359 15.609 12.0359 20C12.0359 24.391 15.6089 27.964 19.9999 27.964C24.3909 27.964 27.9639 24.391 27.9639 20C27.9639 15.609 24.3919 12.036 19.9999 12.036Z" fill="#DCD5F2"/>
<path d="M21.933 2L22.892 5.837L23.035 6.408L23.604 6.56C25.976 7.195 28.136 8.438 29.852 10.154L30.268 10.571L30.834 10.409L34.621 9.326L36.555 12.675L33.712 15.424L33.289 15.833L33.441 16.401C33.765 17.612 33.929 18.823 33.929 20C33.929 21.177 33.765 22.388 33.441 23.599L33.289 24.167L33.712 24.576L36.555 27.325L34.621 30.674L30.834 29.591L30.268 29.429L29.852 29.846C28.137 31.562 25.976 32.805 23.604 33.44L23.035 33.592L22.892 34.163L21.934 38H18.067L17.108 34.163L16.965 33.592L16.396 33.44C14.024 32.805 11.863 31.562 10.148 29.846L9.73199 29.429L9.16599 29.591L5.37899 30.674L3.44499 27.325L6.28799 24.576L6.71099 24.167L6.55899 23.599C6.23499 22.388 6.07099 21.177 6.07099 20C6.07099 18.823 6.23499 17.612 6.55899 16.401L6.71099 15.833L6.28799 15.424L3.44499 12.675L5.37899 9.326L9.16599 10.409L9.73199 10.571L10.148 10.154C11.863 8.438 14.024 7.195 16.396 6.56L16.965 6.408L17.108 5.837L18.066 2H21.933ZM20 28.464C24.667 28.464 28.464 24.667 28.464 20C28.464 15.333 24.667 11.536 20 11.536C15.333 11.536 11.536 15.333 11.536 20C11.536 24.667 15.333 28.464 20 28.464ZM22.714 1H17.285L16.136 5.594C13.567 6.282 11.265 7.621 9.43999 9.447L4.90299 8.149L2.18899 12.85L5.59399 16.142C5.26399 17.375 5.07099 18.664 5.07099 20C5.07099 21.336 5.26299 22.625 5.59299 23.857L2.18799 27.149L4.90199 31.85L9.43999 30.552C11.265 32.378 13.568 33.717 16.137 34.405L17.286 39H22.715L23.863 34.406C26.432 33.718 28.735 32.379 30.56 30.553L35.098 31.851L37.812 27.15L34.407 23.858C34.736 22.626 34.929 21.337 34.929 20.001C34.929 18.665 34.737 17.376 34.407 16.144L37.812 12.852L35.098 8.151L30.56 9.449C28.735 7.623 26.433 6.284 23.864 5.596L22.714 1ZM20 27.464C15.878 27.464 12.536 24.122 12.536 20C12.536 15.878 15.878 12.536 20 12.536C24.122 12.536 27.464 15.878 27.464 20C27.464 24.122 24.122 27.464 20 27.464Z" fill="#8B75A1"/>
<path d="M20 30.5C14.21 30.5 9.5 25.79 9.5 20C9.5 14.21 14.21 9.5 20 9.5C25.79 9.5 30.5 14.21 30.5 20C30.5 25.79 25.79 30.5 20 30.5ZM20 15.5C17.519 15.5 15.5 17.519 15.5 20C15.5 22.481 17.519 24.5 20 24.5C22.481 24.5 24.5 22.481 24.5 20C24.5 17.519 22.481 15.5 20 15.5Z" fill="#EEEBF7"/>
<path d="M20 10C25.514 10 30 14.486 30 20C30 25.514 25.514 30 20 30C14.486 30 10 25.514 10 20C10 14.486 14.486 10 20 10ZM20 25C22.757 25 25 22.757 25 20C25 17.243 22.757 15 20 15C17.243 15 15 17.243 15 20C15 22.757 17.243 25 20 25ZM20 9C13.925 9 9 13.925 9 20C9 26.075 13.925 31 20 31C26.075 31 31 26.075 31 20C31 13.925 26.075 9 20 9ZM20 24C17.791 24 16 22.209 16 20C16 17.791 17.791 16 20 16C22.209 16 24 17.791 24 20C24 22.209 22.209 24 20 24Z" fill="#8B75A1"/>
</svg>
