<svg width="57" height="56" viewBox="0 0 57 56" fill="none" xmlns="http://www.w3.org/2000/svg">
<path d="M42.6667 18.6666H45.0001C47.4754 18.6666 49.8494 19.65 51.5997 21.4003C53.3501 23.1506 54.3334 25.5246 54.3334 28C54.3334 30.4753 53.3501 32.8493 51.5997 34.5996C49.8494 36.35 47.4754 37.3333 45.0001 37.3333H42.6667" stroke="#0D0C0C" stroke-width="1.75" stroke-linecap="round" stroke-linejoin="round"/>
<path d="M5.3335 18.6666H42.6668V39.6666C42.6668 42.142 41.6835 44.5159 39.9332 46.2663C38.1828 48.0166 35.8088 49 33.3335 49H14.6668C12.1915 49 9.81751 48.0166 8.06717 46.2663C6.31683 44.5159 5.3335 42.142 5.3335 39.6666V18.6666Z" stroke="#0D0C0C" stroke-width="1.75" stroke-linecap="round" stroke-linejoin="round"/>
<path d="M14.6667 2.33337V9.33337" stroke="#0D0C0C" stroke-width="1.75" stroke-linecap="round" stroke-linejoin="round"/>
<path d="M24 2.33337V9.33337" stroke="#0D0C0C" stroke-width="1.75" stroke-linecap="round" stroke-linejoin="round"/>
<path d="M33.3335 2.33337V9.33337" stroke="#0D0C0C" stroke-width="1.75" stroke-linecap="round" stroke-linejoin="round"/>
</svg>
