<svg width="57" height="56" viewBox="0 0 57 56" fill="none" xmlns="http://www.w3.org/2000/svg">
<path d="M31.833 49.0001H24.833" stroke="#0D0C0C" stroke-width="1.75" stroke-linecap="round" stroke-linejoin="round"/>
<path d="M27.2332 4.32313C23.0786 7.65122 9.1828 20.9501 21.3334 42H35.3334C47.2314 20.965 33.5388 7.67004 29.4278 4.33021C29.1179 4.0783 28.7311 3.9402 28.3318 3.93891C27.9324 3.93762 27.5447 4.07323 27.2332 4.32313V4.32313Z" stroke="#0D0C0C" stroke-width="1.75" stroke-linecap="round" stroke-linejoin="round"/>
<path d="M16.492 24.3599L9.63413 32.5893C9.46283 32.7949 9.34095 33.037 9.27786 33.297C9.21477 33.5571 9.21214 33.8281 9.27019 34.0893L11.9746 46.259C12.039 46.5491 12.1763 46.818 12.3735 47.0404C12.5706 47.2628 12.8212 47.4313 13.1015 47.53C13.3818 47.6287 13.6826 47.6545 13.9756 47.6048C14.2686 47.5551 14.5441 47.4316 14.7761 47.2459L21.3337 41.9999" stroke="#0D0C0C" stroke-width="1.75" stroke-linecap="round" stroke-linejoin="round"/>
<path d="M40.043 24.2023L47.0325 32.5897C47.2038 32.7953 47.3257 33.0374 47.3888 33.2974C47.4519 33.5574 47.4545 33.8285 47.3965 34.0897L44.6921 46.2594C44.6276 46.5495 44.4903 46.8184 44.2932 47.0408C44.096 47.2631 43.8455 47.4316 43.5652 47.5304C43.2849 47.6291 42.9841 47.6548 42.6911 47.6051C42.3981 47.5554 42.1226 47.4319 41.8905 47.2463L35.333 42.0003" stroke="#0D0C0C" stroke-width="1.75" stroke-linecap="round" stroke-linejoin="round"/>
<path d="M28.333 22.7499C29.2995 22.7499 30.083 21.9664 30.083 20.9999C30.083 20.0334 29.2995 19.2499 28.333 19.2499C27.3665 19.2499 26.583 20.0334 26.583 20.9999C26.583 21.9664 27.3665 22.7499 28.333 22.7499Z" fill="#0D0C0C"/>
</svg>
