<svg width="5" height="243" viewBox="0 0 5 243" fill="none" xmlns="http://www.w3.org/2000/svg">
<g clip-path="url(#clip0)">
<circle cx="2.33301" cy="2" r="2" fill="#0D0C0C"/>
<circle cx="2.33301" cy="14" r="2" fill="#0D0C0C"/>
<circle cx="2.33301" cy="26" r="2" fill="#0D0C0C"/>
<circle cx="2.33301" cy="38" r="2" fill="#0D0C0C"/>
<circle cx="2.33301" cy="50" r="2" fill="#0D0C0C"/>
<circle cx="2.33301" cy="62" r="2" fill="#0D0C0C"/>
<circle cx="2.33301" cy="74" r="2" fill="#0D0C0C"/>
<circle cx="2.33301" cy="86" r="2" fill="#0D0C0C"/>
<circle cx="2.33301" cy="98" r="2" fill="#0D0C0C"/>
<circle cx="2.33301" cy="110" r="2" fill="#0D0C0C"/>
<circle cx="2.33301" cy="122" r="2" fill="#0D0C0C"/>
<circle cx="2.33301" cy="134" r="2" fill="#0D0C0C"/>
<circle cx="2.33301" cy="146" r="2" fill="#0D0C0C"/>
<circle cx="2.33301" cy="158" r="2" fill="#0D0C0C"/>
<circle cx="2.33301" cy="170" r="2" fill="#0D0C0C"/>
<circle cx="2.33301" cy="182" r="2" fill="#0D0C0C"/>
<circle cx="2.33301" cy="194" r="2" fill="#0D0C0C"/>
<circle cx="2.33301" cy="206" r="2" fill="#0D0C0C"/>
<circle cx="2.33301" cy="218" r="2" fill="#0D0C0C"/>
<circle cx="2.33301" cy="230" r="2" fill="#0D0C0C"/>
<circle cx="2.33301" cy="242" r="2" fill="#0D0C0C"/>
</g>
<defs>
<clipPath id="clip0">
<rect width="4" height="243" fill="white" transform="translate(0.333008)"/>
</clipPath>
</defs>
</svg>
