<svg width="244" height="225" viewBox="0 0 244 225" fill="none" xmlns="http://www.w3.org/2000/svg">
<circle cx="126.264" cy="116.793" r="107.753" fill="black"/>
<circle cx="126.264" cy="128.153" r="96.3923" fill="#FDF8F3"/>
<circle cx="126.264" cy="128.153" r="94.671" fill="#F36152"/>
<circle cx="126.264" cy="144.333" r="78.4909" fill="#FDF8F3"/>
<circle cx="126.264" cy="144.333" r="76.7696" fill="#FFD72E"/>
<circle cx="126.264" cy="156.038" r="65.0648" fill="#FDF8F3"/>
<circle cx="126.264" cy="156.038" r="63.3435" fill="#25ABEA"/>
<path d="M107.316 16.8348C107.577 20.1202 107.844 23.4057 108.116 26.6911C103.817 26.6792 99.5143 26.6704 95.2089 26.6644C96.223 33.2353 97.2549 39.8032 98.3045 46.3682C102.153 46.3741 106.002 46.38 109.851 46.386C110.148 49.6714 110.447 52.9569 110.749 56.2423C104.558 56.2304 97.4802 56.2216 91.2948 56.2156C85.1034 56.2067 81.0915 52.8976 79.2679 46.297C75.2827 31.1982 72.4776 16.1024 69.0736 1.00949C76.6289 1.02728 84.1842 1.04211 91.7396 1.05397C92.3919 6.30831 93.0739 11.5597 93.7856 16.8081C98.2927 16.82 102.803 16.8288 107.316 16.8348ZM110.91 26.7267C110.492 20.1439 115.037 16.8526 122.767 16.8615C133.069 16.8852 143.373 16.9059 153.68 16.9237C151.823 30.0359 150.777 43.145 148.76 56.2512C145.677 56.2749 141.7 56.2957 138.611 56.3135C138.729 54.991 138.842 53.6656 138.949 52.3371C137.668 54.9702 135.488 56.2779 132.401 56.269C129.306 56.269 126.21 56.266 123.114 56.2601C116.923 56.2512 112.715 52.9598 112.253 46.3949C111.796 39.8418 111.348 33.2857 110.91 26.7267ZM140.372 36.5919C140.662 33.3065 140.95 30.024 141.235 26.7445C138.181 26.7385 135.123 26.7326 132.063 26.7267C131.927 30.024 131.788 33.3183 131.645 36.6097C134.551 36.6038 137.46 36.5979 140.372 36.5919ZM171.796 46.5194C170.906 50.3801 170.461 52.604 169.718 56.3224C164.049 56.3164 156.6 56.3075 150.931 56.2957C154.086 37.9233 156.995 19.5539 159.658 1.18741C167.213 1.2052 174.771 1.22002 182.332 1.23188C180.281 10.4062 178.586 19.3997 176.243 28.5859C176.877 26.0441 177.543 23.3711 176.243 28.5859C179.802 25.0276 184.433 20.5858 188.697 16.5768C193.21 16.5887 197.978 16.5709 202.485 16.5768C194.924 23.3434 188.829 30.5518 181.647 37.3303C184.15 43.6639 186.473 49.4905 189.173 56.3491C185.562 56.3431 179.284 56.3372 175.679 56.3313C174.261 52.9213 173.385 49.9353 171.796 46.5194ZM232.731 36.1471C228.846 42.7002 224.765 49.8019 220.874 56.3491C212.619 56.3372 205.583 56.3698 197.339 56.358C191.148 56.358 189.44 53.0666 192.189 46.5194C194.905 39.9722 197.571 33.428 200.186 26.8868C202.703 20.313 207.774 16.132 215.477 16.1498C223.11 16.1617 230.662 16.1735 238.135 16.1854C242.965 16.1943 244.175 19.0498 241.871 22.9816C240.332 25.6058 237.663 28.23 233.882 30.8454C231.066 32.8024 228.407 34.1782 225.614 36.1471C228.389 36.1471 229.985 36.1412 232.731 36.1471ZM228.283 26.8067C225.323 26.8008 223.252 26.8927 220.263 26.8868C218.615 30.1604 217.495 32.8676 215.829 36.1471C220.413 32.8736 223.604 30.0744 228.283 26.8067ZM150 131.5C148.648 137.184 145.889 144 142.5 144C135.781 144 136.225 132.006 129.5 132C130.283 116.077 132.613 78.3064 133.545 62.3892C142.956 62.4129 152.599 62.3655 162.01 62.3892C169.06 62.4069 169.981 65.1646 168.237 70.84C165.213 81.0581 153.558 119.687 150 131.5ZM151.091 81.3991C151.844 77.6748 152.606 74.8371 153.377 71.1069C151.367 71.1069 148.227 71.1069 148.227 71.1069C148.227 71.1069 147.002 77.6451 146.403 81.3635C148.265 81.3754 149.235 81.3872 151.091 81.3991ZM184.694 72.1743C179.908 72.1684 174.79 72.1803 170.017 72.1743C171.12 68.7703 172.46 65.3544 173.575 61.9444C178.71 61.9503 184.012 61.9385 189.142 61.9444C187.671 65.3544 186.147 68.7703 184.694 72.1743ZM169.127 75.7326C173.782 75.7385 178.693 75.7267 183.36 75.7326C178.794 87.0774 153.119 148.06 148.227 159.5C144.633 159.5 151.826 140 148.227 140C151.192 128.643 165.693 87.0834 169.127 75.7326ZM199.817 92.3852C196.531 98.0546 165.165 150.331 162.01 156C156.999 156 159.839 154 155 154C151.397 153.991 144.402 171.675 146.403 166C148.568 160.336 177.772 90.4607 180.091 84.7972C182.519 79.104 186.642 75.7326 191.366 75.7326C196.14 75.7385 200.285 75.7267 205.154 75.7326C208.481 75.7326 209.286 77.9832 207.276 81.3902C205.932 83.6586 203.789 85.9269 200.871 88.1953C198.742 89.8914 196.994 90.6772 194.924 92.3852C196.792 92.3852 197.889 92.3852 199.817 92.3852ZM197.593 84.6282C195.666 84.6282 195.049 84.6341 193.145 84.6282C191.704 87.4688 190.115 89.7936 188.697 92.6342C191.959 89.7936 194.165 87.4629 197.593 84.6282ZM115.082 104.323C115.357 108.308 114.254 110.292 111.764 110.292C109.694 110.286 107.621 110.28 105.546 110.274C103.064 110.274 100.608 108.282 99.9235 104.314C99.2059 100.323 98.4676 95.4482 97.7085 91.4689C96.9168 87.4748 98.8827 85.4822 101.854 85.4911C104.321 85.4911 106.791 85.4911 109.264 85.4911C112.226 85.5 113.872 88.391 114.192 92.3852C114.5 96.3645 114.797 100.344 115.082 104.323ZM107.302 97.9004C107.042 95.896 106.663 94.357 106.391 92.3585C105.21 92.3585 104.03 92.3585 102.85 92.3585C103.17 94.3511 103.43 95.9078 103.744 97.9004C104.871 97.9123 106.17 97.8945 107.302 97.9004ZM116.763 110.292C116.407 104.326 116.036 97.4675 115.651 91.4956C115.375 87.5015 116.718 85.5 119.69 85.5C122.655 85.5059 125.623 85.5089 128.594 85.5089C128.535 87.5015 128.475 90.3836 128.416 92.3763C126.762 92.3763 125.107 92.3763 123.452 92.3763C123.506 98.3422 123.556 104.314 123.604 110.292C121.326 110.292 119.046 110.292 116.763 110.292ZM37.6098 38.3444C34.5675 38.3384 31.6764 38.4066 28.6519 38.4066C20.1655 38.3888 15.1751 34.1723 10.3092 25.8994C7.88366 21.76 5.47888 17.6265 3.09486 13.4989C-1.49527 5.19043 1.47586 1.04508 11.8303 1.06287C25.9447 1.11031 39.7967 0.962058 53.9289 1.0095C54.8184 5.01252 55.708 9.46032 56.7532 13.9081C46.8316 13.8903 37.4913 13.9318 27.5935 13.9081C29.4141 18.0357 31.5312 21.8015 33.4289 25.935C41.1859 25.9528 48.9606 25.9676 56.7532 25.9795C66.0758 25.9972 71.8846 30.1337 74.2419 38.4066C80.1308 58.2379 103.744 140 103.744 140C103.744 140 102.5 135.5 105.546 147C95.79 147 99.0342 163.006 89 163C79.8197 147.373 38.1109 79.018 28.6519 63.3855C36.4267 63.3973 42.3779 63.4062 50.0637 63.4122C55.0541 63.4211 56.0593 60.1208 53.0704 53.5114C52.2816 51.7678 51.4959 50.0243 50.713 48.2807C47.7508 41.6624 43.3831 38.3532 37.6098 38.3444Z" fill="#FFA800"/>
<path d="M107.316 16.8348C107.577 20.1202 107.844 23.4057 108.116 26.6911C103.817 26.6792 99.5143 26.6704 95.2089 26.6644C96.223 33.2353 97.2549 39.8032 98.3045 46.3682C102.153 46.3741 106.002 46.38 109.851 46.386C110.148 49.6714 110.447 52.9569 110.749 56.2423C104.558 56.2304 97.4802 56.2216 91.2948 56.2156C85.1034 56.2067 81.0915 52.8976 79.2679 46.297C75.2827 31.1982 72.4776 16.1024 69.0736 1.00949C76.6289 1.02728 84.1842 1.04211 91.7396 1.05397C92.3919 6.30831 93.0739 11.5597 93.7856 16.8081C98.2927 16.82 102.803 16.8288 107.316 16.8348ZM110.91 26.7267C110.492 20.1439 115.037 16.8526 122.767 16.8615C133.069 16.8852 143.373 16.9059 153.68 16.9237C151.823 30.0359 150.777 43.145 148.76 56.2512C145.677 56.2749 141.7 56.2957 138.611 56.3135C138.729 54.991 138.842 53.6656 138.949 52.3371C137.668 54.9702 135.488 56.2779 132.401 56.269C129.306 56.269 126.21 56.266 123.114 56.2601C116.923 56.2512 112.715 52.9598 112.253 46.3949C111.796 39.8418 111.348 33.2857 110.91 26.7267ZM140.372 36.5919C140.662 33.3065 140.95 30.024 141.235 26.7445C138.181 26.7385 135.123 26.7326 132.063 26.7267C131.927 30.024 131.788 33.3183 131.645 36.6097C134.551 36.6038 137.46 36.5979 140.372 36.5919ZM171.796 46.5194C170.906 50.3801 170.461 52.604 169.718 56.3224C164.049 56.3164 156.6 56.3075 150.931 56.2957C154.086 37.9233 156.995 19.5539 159.658 1.18741C167.213 1.2052 174.771 1.22002 182.332 1.23188C180.281 10.4062 178.586 19.3997 176.243 28.5859C176.877 26.0441 177.543 23.3711 176.243 28.5859C179.802 25.0276 184.433 20.5858 188.697 16.5768C193.21 16.5887 197.978 16.5709 202.485 16.5768C194.924 23.3434 188.829 30.5518 181.647 37.3303C184.15 43.6639 186.473 49.4905 189.173 56.3491C185.562 56.3431 179.284 56.3372 175.679 56.3313C174.261 52.9213 173.385 49.9353 171.796 46.5194ZM232.731 36.1471C228.846 42.7002 224.765 49.8019 220.874 56.3491C212.619 56.3372 205.583 56.3698 197.339 56.358C191.148 56.358 189.44 53.0666 192.189 46.5194C194.905 39.9722 197.571 33.428 200.186 26.8868C202.703 20.313 207.774 16.132 215.477 16.1498C223.11 16.1617 230.662 16.1735 238.135 16.1854C242.965 16.1943 244.175 19.0498 241.871 22.9816C240.332 25.6058 237.663 28.23 233.882 30.8454C231.066 32.8024 228.407 34.1782 225.614 36.1471C228.389 36.1471 229.985 36.1412 232.731 36.1471ZM228.283 26.8067C225.323 26.8008 223.252 26.8927 220.263 26.8868C218.615 30.1604 217.495 32.8676 215.829 36.1471C220.413 32.8736 223.604 30.0744 228.283 26.8067ZM150 131.5C148.648 137.184 145.889 144 142.5 144C135.781 144 136.225 132.006 129.5 132C130.283 116.077 132.613 78.3064 133.545 62.3892C142.956 62.4129 152.599 62.3655 162.01 62.3892C169.06 62.4069 169.981 65.1646 168.237 70.84C165.213 81.0581 153.558 119.687 150 131.5ZM151.091 81.3991C151.844 77.6748 152.606 74.8371 153.377 71.1069C151.367 71.1069 148.227 71.1069 148.227 71.1069C148.227 71.1069 147.002 77.6451 146.403 81.3635C148.265 81.3754 149.235 81.3872 151.091 81.3991ZM184.694 72.1743C179.908 72.1684 174.79 72.1803 170.017 72.1743C171.12 68.7703 172.46 65.3544 173.575 61.9444C178.71 61.9503 184.012 61.9385 189.142 61.9444C187.671 65.3544 186.147 68.7703 184.694 72.1743ZM169.127 75.7326C173.782 75.7385 178.693 75.7267 183.36 75.7326C178.794 87.0774 153.119 148.06 148.227 159.5C144.633 159.5 151.826 140 148.227 140C151.192 128.643 165.693 87.0834 169.127 75.7326ZM199.817 92.3852C196.531 98.0546 165.165 150.331 162.01 156C156.999 156 159.839 154 155 154C151.397 153.991 144.402 171.675 146.403 166C148.568 160.336 177.772 90.4607 180.091 84.7972C182.519 79.104 186.642 75.7326 191.366 75.7326C196.14 75.7385 200.285 75.7267 205.154 75.7326C208.481 75.7326 209.286 77.9832 207.276 81.3902C205.932 83.6586 203.789 85.9269 200.871 88.1953C198.742 89.8914 196.994 90.6772 194.924 92.3852C196.792 92.3852 197.889 92.3852 199.817 92.3852ZM197.593 84.6282C195.666 84.6282 195.049 84.6341 193.145 84.6282C191.704 87.4688 190.115 89.7936 188.697 92.6342C191.959 89.7936 194.165 87.4629 197.593 84.6282ZM115.082 104.323C115.357 108.308 114.254 110.292 111.764 110.292C109.694 110.286 107.621 110.28 105.546 110.274C103.064 110.274 100.608 108.282 99.9235 104.314C99.2059 100.323 98.4676 95.4482 97.7085 91.4689C96.9168 87.4748 98.8827 85.4822 101.854 85.4911C104.321 85.4911 106.791 85.4911 109.264 85.4911C112.226 85.5 113.872 88.391 114.192 92.3852C114.5 96.3645 114.797 100.344 115.082 104.323ZM107.302 97.9004C107.042 95.896 106.663 94.357 106.391 92.3585C105.21 92.3585 104.03 92.3585 102.85 92.3585C103.17 94.3511 103.43 95.9078 103.744 97.9004C104.871 97.9123 106.17 97.8945 107.302 97.9004ZM116.763 110.292C116.407 104.326 116.036 97.4675 115.651 91.4956C115.375 87.5015 116.718 85.5 119.69 85.5C122.655 85.5059 125.623 85.5089 128.594 85.5089C128.535 87.5015 128.475 90.3836 128.416 92.3763C126.762 92.3763 125.107 92.3763 123.452 92.3763C123.506 98.3422 123.556 104.314 123.604 110.292C121.326 110.292 119.046 110.292 116.763 110.292ZM37.6098 38.3444C34.5675 38.3384 31.6764 38.4066 28.6519 38.4066C20.1655 38.3888 15.1751 34.1723 10.3092 25.8994C7.88366 21.76 5.47888 17.6265 3.09486 13.4989C-1.49527 5.19043 1.47586 1.04508 11.8303 1.06287C25.9447 1.11031 39.7967 0.962058 53.9289 1.0095C54.8184 5.01252 55.708 9.46032 56.7532 13.9081C46.8316 13.8903 37.4913 13.9318 27.5935 13.9081C29.4141 18.0357 31.5312 21.8015 33.4289 25.935C41.1859 25.9528 48.9606 25.9676 56.7532 25.9795C66.0758 25.9972 71.8846 30.1337 74.2419 38.4066C80.1308 58.2379 103.744 140 103.744 140C103.744 140 102.5 135.5 105.546 147C95.79 147 99.0342 163.006 89 163C79.8197 147.373 38.1109 79.018 28.6519 63.3855C36.4267 63.3973 42.3779 63.4062 50.0637 63.4122C55.0541 63.4211 56.0593 60.1208 53.0704 53.5114C52.2816 51.7678 51.4959 50.0243 50.713 48.2807C47.7508 41.6624 43.3831 38.3532 37.6098 38.3444Z" fill="#FFA800"/>
<path d="M107.316 16.8348C107.577 20.1202 107.844 23.4057 108.116 26.6911C103.817 26.6792 99.5143 26.6704 95.2089 26.6644C96.223 33.2353 97.2549 39.8032 98.3045 46.3682C102.153 46.3741 106.002 46.38 109.851 46.386C110.148 49.6714 110.447 52.9569 110.749 56.2423C104.558 56.2304 97.4802 56.2216 91.2948 56.2156C85.1034 56.2067 81.0915 52.8976 79.2679 46.297C75.2827 31.1982 72.4776 16.1024 69.0736 1.00949C76.6289 1.02728 84.1842 1.04211 91.7396 1.05397C92.3919 6.30831 93.0739 11.5597 93.7856 16.8081C98.2927 16.82 102.803 16.8288 107.316 16.8348ZM110.91 26.7267C110.492 20.1439 115.037 16.8526 122.767 16.8615C133.069 16.8852 143.373 16.9059 153.68 16.9237C151.823 30.0359 150.777 43.145 148.76 56.2512C145.677 56.2749 141.7 56.2957 138.611 56.3135C138.729 54.991 138.842 53.6656 138.949 52.3371C137.668 54.9702 135.488 56.2779 132.401 56.269C129.306 56.269 126.21 56.266 123.114 56.2601C116.923 56.2512 112.715 52.9598 112.253 46.3949C111.796 39.8418 111.348 33.2857 110.91 26.7267ZM140.372 36.5919C140.662 33.3065 140.95 30.024 141.235 26.7445C138.181 26.7385 135.123 26.7326 132.063 26.7267C131.927 30.024 131.788 33.3183 131.645 36.6097C134.551 36.6038 137.46 36.5979 140.372 36.5919ZM171.796 46.5194C170.906 50.3801 170.461 52.604 169.718 56.3224C164.049 56.3164 156.6 56.3075 150.931 56.2957C154.086 37.9233 156.995 19.5539 159.658 1.18741C167.213 1.2052 174.771 1.22002 182.332 1.23188C180.281 10.4062 178.586 19.3997 176.243 28.5859C176.877 26.0441 177.543 23.3711 176.243 28.5859C179.802 25.0276 184.433 20.5858 188.697 16.5768C193.21 16.5887 197.978 16.5709 202.485 16.5768C194.924 23.3434 188.829 30.5518 181.647 37.3303C184.15 43.6639 186.473 49.4905 189.173 56.3491C185.562 56.3431 179.284 56.3372 175.679 56.3313C174.261 52.9213 173.385 49.9353 171.796 46.5194ZM232.731 36.1471C228.846 42.7002 224.765 49.8019 220.874 56.3491C212.619 56.3372 205.583 56.3698 197.339 56.358C191.148 56.358 189.44 53.0666 192.189 46.5194C194.905 39.9722 197.571 33.428 200.186 26.8868C202.703 20.313 207.774 16.132 215.477 16.1498C223.11 16.1617 230.662 16.1735 238.135 16.1854C242.965 16.1943 244.175 19.0498 241.871 22.9816C240.332 25.6058 237.663 28.23 233.882 30.8454C231.066 32.8024 228.407 34.1782 225.614 36.1471C228.389 36.1471 229.985 36.1412 232.731 36.1471ZM228.283 26.8067C225.323 26.8008 223.252 26.8927 220.263 26.8868C218.615 30.1604 217.495 32.8676 215.829 36.1471C220.413 32.8736 223.604 30.0744 228.283 26.8067ZM150 131.5C148.648 137.184 145.889 144 142.5 144C135.781 144 136.225 132.006 129.5 132C130.283 116.077 132.613 78.3064 133.545 62.3892C142.956 62.4129 152.599 62.3655 162.01 62.3892C169.06 62.4069 169.981 65.1646 168.237 70.84C165.213 81.0581 153.558 119.687 150 131.5ZM151.091 81.3991C151.844 77.6748 152.606 74.8371 153.377 71.1069C151.367 71.1069 148.227 71.1069 148.227 71.1069C148.227 71.1069 147.002 77.6451 146.403 81.3635C148.265 81.3754 149.235 81.3872 151.091 81.3991ZM184.694 72.1743C179.908 72.1684 174.79 72.1803 170.017 72.1743C171.12 68.7703 172.46 65.3544 173.575 61.9444C178.71 61.9503 184.012 61.9385 189.142 61.9444C187.671 65.3544 186.147 68.7703 184.694 72.1743ZM169.127 75.7326C173.782 75.7385 178.693 75.7267 183.36 75.7326C178.794 87.0774 153.119 148.06 148.227 159.5C144.633 159.5 151.826 140 148.227 140C151.192 128.643 165.693 87.0834 169.127 75.7326ZM199.817 92.3852C196.531 98.0546 165.165 150.331 162.01 156C156.999 156 159.839 154 155 154C151.397 153.991 144.402 171.675 146.403 166C148.568 160.336 177.772 90.4607 180.091 84.7972C182.519 79.104 186.642 75.7326 191.366 75.7326C196.14 75.7385 200.285 75.7267 205.154 75.7326C208.481 75.7326 209.286 77.9832 207.276 81.3902C205.932 83.6586 203.789 85.9269 200.871 88.1953C198.742 89.8914 196.994 90.6772 194.924 92.3852C196.792 92.3852 197.889 92.3852 199.817 92.3852ZM197.593 84.6282C195.666 84.6282 195.049 84.6341 193.145 84.6282C191.704 87.4688 190.115 89.7936 188.697 92.6342C191.959 89.7936 194.165 87.4629 197.593 84.6282ZM115.082 104.323C115.357 108.308 114.254 110.292 111.764 110.292C109.694 110.286 107.621 110.28 105.546 110.274C103.064 110.274 100.608 108.282 99.9235 104.314C99.2059 100.323 98.4676 95.4482 97.7085 91.4689C96.9168 87.4748 98.8827 85.4822 101.854 85.4911C104.321 85.4911 106.791 85.4911 109.264 85.4911C112.226 85.5 113.872 88.391 114.192 92.3852C114.5 96.3645 114.797 100.344 115.082 104.323ZM107.302 97.9004C107.042 95.896 106.663 94.357 106.391 92.3585C105.21 92.3585 104.03 92.3585 102.85 92.3585C103.17 94.3511 103.43 95.9078 103.744 97.9004C104.871 97.9123 106.17 97.8945 107.302 97.9004ZM116.763 110.292C116.407 104.326 116.036 97.4675 115.651 91.4956C115.375 87.5015 116.718 85.5 119.69 85.5C122.655 85.5059 125.623 85.5089 128.594 85.5089C128.535 87.5015 128.475 90.3836 128.416 92.3763C126.762 92.3763 125.107 92.3763 123.452 92.3763C123.506 98.3422 123.556 104.314 123.604 110.292C121.326 110.292 119.046 110.292 116.763 110.292ZM37.6098 38.3444C34.5675 38.3384 31.6764 38.4066 28.6519 38.4066C20.1655 38.3888 15.1751 34.1723 10.3092 25.8994C7.88366 21.76 5.47888 17.6265 3.09486 13.4989C-1.49527 5.19043 1.47586 1.04508 11.8303 1.06287C25.9447 1.11031 39.7967 0.962058 53.9289 1.0095C54.8184 5.01252 55.708 9.46032 56.7532 13.9081C46.8316 13.8903 37.4913 13.9318 27.5935 13.9081C29.4141 18.0357 31.5312 21.8015 33.4289 25.935C41.1859 25.9528 48.9606 25.9676 56.7532 25.9795C66.0758 25.9972 71.8846 30.1337 74.2419 38.4066C80.1308 58.2379 103.744 140 103.744 140C103.744 140 102.5 135.5 105.546 147C95.79 147 99.0342 163.006 89 163C79.8197 147.373 38.1109 79.018 28.6519 63.3855C36.4267 63.3973 42.3779 63.4062 50.0637 63.4122C55.0541 63.4211 56.0593 60.1208 53.0704 53.5114C52.2816 51.7678 51.4959 50.0243 50.713 48.2807C47.7508 41.6624 43.3831 38.3532 37.6098 38.3444Z" fill="#FFA800"/>
<path d="M107.316 16.8348C107.577 20.1202 107.844 23.4057 108.116 26.6911C103.817 26.6792 99.5143 26.6704 95.2089 26.6644C96.223 33.2353 97.2549 39.8032 98.3045 46.3682C102.153 46.3741 106.002 46.38 109.851 46.386C110.148 49.6714 110.447 52.9569 110.749 56.2423C104.558 56.2304 97.4802 56.2216 91.2948 56.2156C85.1034 56.2067 81.0915 52.8976 79.2679 46.297C75.2827 31.1982 72.4776 16.1024 69.0736 1.00949C76.6289 1.02728 84.1842 1.04211 91.7396 1.05397C92.3919 6.30831 93.0739 11.5597 93.7856 16.8081C98.2927 16.82 102.803 16.8288 107.316 16.8348ZM110.91 26.7267C110.492 20.1439 115.037 16.8526 122.767 16.8615C133.069 16.8852 143.373 16.9059 153.68 16.9237C151.823 30.0359 150.777 43.145 148.76 56.2512C145.677 56.2749 141.7 56.2957 138.611 56.3135C138.729 54.991 138.842 53.6656 138.949 52.3371C137.668 54.9702 135.488 56.2779 132.401 56.269C129.306 56.269 126.21 56.266 123.114 56.2601C116.923 56.2512 112.715 52.9598 112.253 46.3949C111.796 39.8418 111.348 33.2857 110.91 26.7267ZM140.372 36.5919C140.662 33.3065 140.95 30.024 141.235 26.7445C138.181 26.7385 135.123 26.7326 132.063 26.7267C131.927 30.024 131.788 33.3183 131.645 36.6097C134.551 36.6038 137.46 36.5979 140.372 36.5919ZM171.796 46.5194C170.906 50.3801 170.461 52.604 169.718 56.3224C164.049 56.3164 156.6 56.3075 150.931 56.2957C154.086 37.9233 156.995 19.5539 159.658 1.18741C167.213 1.2052 174.771 1.22002 182.332 1.23188C180.281 10.4062 178.586 19.3997 176.243 28.5859C176.877 26.0441 177.543 23.3711 176.243 28.5859C179.802 25.0276 184.433 20.5858 188.697 16.5768C193.21 16.5887 197.978 16.5709 202.485 16.5768C194.924 23.3434 188.829 30.5518 181.647 37.3303C184.15 43.6639 186.473 49.4905 189.173 56.3491C185.562 56.3431 179.284 56.3372 175.679 56.3313C174.261 52.9213 173.385 49.9353 171.796 46.5194ZM232.731 36.1471C228.846 42.7002 224.765 49.8019 220.874 56.3491C212.619 56.3372 205.583 56.3698 197.339 56.358C191.148 56.358 189.44 53.0666 192.189 46.5194C194.905 39.9722 197.571 33.428 200.186 26.8868C202.703 20.313 207.774 16.132 215.477 16.1498C223.11 16.1617 230.662 16.1735 238.135 16.1854C242.965 16.1943 244.175 19.0498 241.871 22.9816C240.332 25.6058 237.663 28.23 233.882 30.8454C231.066 32.8024 228.407 34.1782 225.614 36.1471C228.389 36.1471 229.985 36.1412 232.731 36.1471ZM228.283 26.8067C225.323 26.8008 223.252 26.8927 220.263 26.8868C218.615 30.1604 217.495 32.8676 215.829 36.1471C220.413 32.8736 223.604 30.0744 228.283 26.8067ZM150 131.5C148.648 137.184 145.889 144 142.5 144C135.781 144 136.225 132.006 129.5 132C130.283 116.077 132.613 78.3064 133.545 62.3892C142.956 62.4129 152.599 62.3655 162.01 62.3892C169.06 62.4069 169.981 65.1646 168.237 70.84C165.213 81.0581 153.558 119.687 150 131.5ZM151.091 81.3991C151.844 77.6748 152.606 74.8371 153.377 71.1069C151.367 71.1069 148.227 71.1069 148.227 71.1069C148.227 71.1069 147.002 77.6451 146.403 81.3635C148.265 81.3754 149.235 81.3872 151.091 81.3991ZM184.694 72.1743C179.908 72.1684 174.79 72.1803 170.017 72.1743C171.12 68.7703 172.46 65.3544 173.575 61.9444C178.71 61.9503 184.012 61.9385 189.142 61.9444C187.671 65.3544 186.147 68.7703 184.694 72.1743ZM169.127 75.7326C173.782 75.7385 178.693 75.7267 183.36 75.7326C178.794 87.0774 153.119 148.06 148.227 159.5C144.633 159.5 151.826 140 148.227 140C151.192 128.643 165.693 87.0834 169.127 75.7326ZM199.817 92.3852C196.531 98.0546 165.165 150.331 162.01 156C156.999 156 159.839 154 155 154C151.397 153.991 144.402 171.675 146.403 166C148.568 160.336 177.772 90.4607 180.091 84.7972C182.519 79.104 186.642 75.7326 191.366 75.7326C196.14 75.7385 200.285 75.7267 205.154 75.7326C208.481 75.7326 209.286 77.9832 207.276 81.3902C205.932 83.6586 203.789 85.9269 200.871 88.1953C198.742 89.8914 196.994 90.6772 194.924 92.3852C196.792 92.3852 197.889 92.3852 199.817 92.3852ZM197.593 84.6282C195.666 84.6282 195.049 84.6341 193.145 84.6282C191.704 87.4688 190.115 89.7936 188.697 92.6342C191.959 89.7936 194.165 87.4629 197.593 84.6282ZM115.082 104.323C115.357 108.308 114.254 110.292 111.764 110.292C109.694 110.286 107.621 110.28 105.546 110.274C103.064 110.274 100.608 108.282 99.9235 104.314C99.2059 100.323 98.4676 95.4482 97.7085 91.4689C96.9168 87.4748 98.8827 85.4822 101.854 85.4911C104.321 85.4911 106.791 85.4911 109.264 85.4911C112.226 85.5 113.872 88.391 114.192 92.3852C114.5 96.3645 114.797 100.344 115.082 104.323ZM107.302 97.9004C107.042 95.896 106.663 94.357 106.391 92.3585C105.21 92.3585 104.03 92.3585 102.85 92.3585C103.17 94.3511 103.43 95.9078 103.744 97.9004C104.871 97.9123 106.17 97.8945 107.302 97.9004ZM116.763 110.292C116.407 104.326 116.036 97.4675 115.651 91.4956C115.375 87.5015 116.718 85.5 119.69 85.5C122.655 85.5059 125.623 85.5089 128.594 85.5089C128.535 87.5015 128.475 90.3836 128.416 92.3763C126.762 92.3763 125.107 92.3763 123.452 92.3763C123.506 98.3422 123.556 104.314 123.604 110.292C121.326 110.292 119.046 110.292 116.763 110.292ZM37.6098 38.3444C34.5675 38.3384 31.6764 38.4066 28.6519 38.4066C20.1655 38.3888 15.1751 34.1723 10.3092 25.8994C7.88366 21.76 5.47888 17.6265 3.09486 13.4989C-1.49527 5.19043 1.47586 1.04508 11.8303 1.06287C25.9447 1.11031 39.7967 0.962058 53.9289 1.0095C54.8184 5.01252 55.708 9.46032 56.7532 13.9081C46.8316 13.8903 37.4913 13.9318 27.5935 13.9081C29.4141 18.0357 31.5312 21.8015 33.4289 25.935C41.1859 25.9528 48.9606 25.9676 56.7532 25.9795C66.0758 25.9972 71.8846 30.1337 74.2419 38.4066C80.1308 58.2379 103.744 140 103.744 140C103.744 140 102.5 135.5 105.546 147C95.79 147 99.0342 163.006 89 163C79.8197 147.373 38.1109 79.018 28.6519 63.3855C36.4267 63.3973 42.3779 63.4062 50.0637 63.4122C55.0541 63.4211 56.0593 60.1208 53.0704 53.5114C52.2816 51.7678 51.4959 50.0243 50.713 48.2807C47.7508 41.6624 43.3831 38.3532 37.6098 38.3444Z" fill="#FFA800"/>
<path d="M107.316 16.8348C107.577 20.1202 107.844 23.4057 108.116 26.6911C103.817 26.6792 99.5143 26.6704 95.2089 26.6644C96.223 33.2353 97.2549 39.8032 98.3045 46.3682C102.153 46.3741 106.002 46.38 109.851 46.386C110.148 49.6714 110.447 52.9569 110.749 56.2423C104.558 56.2304 97.4802 56.2216 91.2948 56.2156C85.1034 56.2067 81.0915 52.8976 79.2679 46.297C75.2827 31.1982 72.4776 16.1024 69.0736 1.00949C76.6289 1.02728 84.1842 1.04211 91.7396 1.05397C92.3919 6.30831 93.0739 11.5597 93.7856 16.8081C98.2927 16.82 102.803 16.8288 107.316 16.8348ZM110.91 26.7267C110.492 20.1439 115.037 16.8526 122.767 16.8615C133.069 16.8852 143.373 16.9059 153.68 16.9237C151.823 30.0359 150.777 43.145 148.76 56.2512C145.677 56.2749 141.7 56.2957 138.611 56.3135C138.729 54.991 138.842 53.6656 138.949 52.3371C137.668 54.9702 135.488 56.2779 132.401 56.269C129.306 56.269 126.21 56.266 123.114 56.2601C116.923 56.2512 112.715 52.9598 112.253 46.3949C111.796 39.8418 111.348 33.2857 110.91 26.7267ZM140.372 36.5919C140.662 33.3065 140.95 30.024 141.235 26.7445C138.181 26.7385 135.123 26.7326 132.063 26.7267C131.927 30.024 131.788 33.3183 131.645 36.6097C134.551 36.6038 137.46 36.5979 140.372 36.5919ZM171.796 46.5194C170.906 50.3801 170.461 52.604 169.718 56.3224C164.049 56.3164 156.6 56.3075 150.931 56.2957C154.086 37.9233 156.995 19.5539 159.658 1.18741C167.213 1.2052 174.771 1.22002 182.332 1.23188C180.281 10.4062 178.586 19.3997 176.243 28.5859C176.877 26.0441 177.543 23.3711 176.243 28.5859C179.802 25.0276 184.433 20.5858 188.697 16.5768C193.21 16.5887 197.978 16.5709 202.485 16.5768C194.924 23.3434 188.829 30.5518 181.647 37.3303C184.15 43.6639 186.473 49.4905 189.173 56.3491C185.562 56.3431 179.284 56.3372 175.679 56.3313C174.261 52.9213 173.385 49.9353 171.796 46.5194ZM232.731 36.1471C228.846 42.7002 224.765 49.8019 220.874 56.3491C212.619 56.3372 205.583 56.3698 197.339 56.358C191.148 56.358 189.44 53.0666 192.189 46.5194C194.905 39.9722 197.571 33.428 200.186 26.8868C202.703 20.313 207.774 16.132 215.477 16.1498C223.11 16.1617 230.662 16.1735 238.135 16.1854C242.965 16.1943 244.175 19.0498 241.871 22.9816C240.332 25.6058 237.663 28.23 233.882 30.8454C231.066 32.8024 228.407 34.1782 225.614 36.1471C228.389 36.1471 229.985 36.1412 232.731 36.1471ZM228.283 26.8067C225.323 26.8008 223.252 26.8927 220.263 26.8868C218.615 30.1604 217.495 32.8676 215.829 36.1471C220.413 32.8736 223.604 30.0744 228.283 26.8067ZM150 131.5C148.648 137.184 145.889 144 142.5 144C135.781 144 136.225 132.006 129.5 132C130.283 116.077 132.613 78.3064 133.545 62.3892C142.956 62.4129 152.599 62.3655 162.01 62.3892C169.06 62.4069 169.981 65.1646 168.237 70.84C165.213 81.0581 153.558 119.687 150 131.5ZM151.091 81.3991C151.844 77.6748 152.606 74.8371 153.377 71.1069C151.367 71.1069 148.227 71.1069 148.227 71.1069C148.227 71.1069 147.002 77.6451 146.403 81.3635C148.265 81.3754 149.235 81.3872 151.091 81.3991ZM184.694 72.1743C179.908 72.1684 174.79 72.1803 170.017 72.1743C171.12 68.7703 172.46 65.3544 173.575 61.9444C178.71 61.9503 184.012 61.9385 189.142 61.9444C187.671 65.3544 186.147 68.7703 184.694 72.1743ZM169.127 75.7326C173.782 75.7385 178.693 75.7267 183.36 75.7326C178.794 87.0774 153.119 148.06 148.227 159.5C144.633 159.5 151.826 140 148.227 140C151.192 128.643 165.693 87.0834 169.127 75.7326ZM199.817 92.3852C196.531 98.0546 165.165 150.331 162.01 156C156.999 156 159.839 154 155 154C151.397 153.991 144.402 171.675 146.403 166C148.568 160.336 177.772 90.4607 180.091 84.7972C182.519 79.104 186.642 75.7326 191.366 75.7326C196.14 75.7385 200.285 75.7267 205.154 75.7326C208.481 75.7326 209.286 77.9832 207.276 81.3902C205.932 83.6586 203.789 85.9269 200.871 88.1953C198.742 89.8914 196.994 90.6772 194.924 92.3852C196.792 92.3852 197.889 92.3852 199.817 92.3852ZM197.593 84.6282C195.666 84.6282 195.049 84.6341 193.145 84.6282C191.704 87.4688 190.115 89.7936 188.697 92.6342C191.959 89.7936 194.165 87.4629 197.593 84.6282ZM115.082 104.323C115.357 108.308 114.254 110.292 111.764 110.292C109.694 110.286 107.621 110.28 105.546 110.274C103.064 110.274 100.608 108.282 99.9235 104.314C99.2059 100.323 98.4676 95.4482 97.7085 91.4689C96.9168 87.4748 98.8827 85.4822 101.854 85.4911C104.321 85.4911 106.791 85.4911 109.264 85.4911C112.226 85.5 113.872 88.391 114.192 92.3852C114.5 96.3645 114.797 100.344 115.082 104.323ZM107.302 97.9004C107.042 95.896 106.663 94.357 106.391 92.3585C105.21 92.3585 104.03 92.3585 102.85 92.3585C103.17 94.3511 103.43 95.9078 103.744 97.9004C104.871 97.9123 106.17 97.8945 107.302 97.9004ZM116.763 110.292C116.407 104.326 116.036 97.4675 115.651 91.4956C115.375 87.5015 116.718 85.5 119.69 85.5C122.655 85.5059 125.623 85.5089 128.594 85.5089C128.535 87.5015 128.475 90.3836 128.416 92.3763C126.762 92.3763 125.107 92.3763 123.452 92.3763C123.506 98.3422 123.556 104.314 123.604 110.292C121.326 110.292 119.046 110.292 116.763 110.292ZM37.6098 38.3444C34.5675 38.3384 31.6764 38.4066 28.6519 38.4066C20.1655 38.3888 15.1751 34.1723 10.3092 25.8994C7.88366 21.76 5.47888 17.6265 3.09486 13.4989C-1.49527 5.19043 1.47586 1.04508 11.8303 1.06287C25.9447 1.11031 39.7967 0.962058 53.9289 1.0095C54.8184 5.01252 55.708 9.46032 56.7532 13.9081C46.8316 13.8903 37.4913 13.9318 27.5935 13.9081C29.4141 18.0357 31.5312 21.8015 33.4289 25.935C41.1859 25.9528 48.9606 25.9676 56.7532 25.9795C66.0758 25.9972 71.8846 30.1337 74.2419 38.4066C80.1308 58.2379 103.744 140 103.744 140C103.744 140 102.5 135.5 105.546 147C95.79 147 99.0342 163.006 89 163C79.8197 147.373 38.1109 79.018 28.6519 63.3855C36.4267 63.3973 42.3779 63.4062 50.0637 63.4122C55.0541 63.4211 56.0593 60.1208 53.0704 53.5114C52.2816 51.7678 51.4959 50.0243 50.713 48.2807C47.7508 41.6624 43.3831 38.3532 37.6098 38.3444Z" fill="#FFA800"/>
<path d="M107.316 16.8348C107.577 20.1202 107.844 23.4057 108.116 26.6911C103.817 26.6792 99.5143 26.6704 95.2089 26.6644C96.223 33.2353 97.2549 39.8032 98.3045 46.3682C102.153 46.3741 106.002 46.38 109.851 46.386C110.148 49.6714 110.447 52.9569 110.749 56.2423C104.558 56.2304 97.4802 56.2216 91.2948 56.2156C85.1034 56.2067 81.0915 52.8976 79.2679 46.297C75.2827 31.1982 72.4776 16.1024 69.0736 1.00949C76.6289 1.02728 84.1842 1.04211 91.7396 1.05397C92.3919 6.30831 93.0739 11.5597 93.7856 16.8081C98.2927 16.82 102.803 16.8288 107.316 16.8348ZM110.91 26.7267C110.492 20.1439 115.037 16.8526 122.767 16.8615C133.069 16.8852 143.373 16.9059 153.68 16.9237C151.823 30.0359 150.777 43.145 148.76 56.2512C145.677 56.2749 141.7 56.2957 138.611 56.3135C138.729 54.991 138.842 53.6656 138.949 52.3371C137.668 54.9702 135.488 56.2779 132.401 56.269C129.306 56.269 126.21 56.266 123.114 56.2601C116.923 56.2512 112.715 52.9598 112.253 46.3949C111.796 39.8418 111.348 33.2857 110.91 26.7267ZM140.372 36.5919C140.662 33.3065 140.95 30.024 141.235 26.7445C138.181 26.7385 135.123 26.7326 132.063 26.7267C131.927 30.024 131.788 33.3183 131.645 36.6097C134.551 36.6038 137.46 36.5979 140.372 36.5919ZM171.796 46.5194C170.906 50.3801 170.461 52.604 169.718 56.3224C164.049 56.3164 156.6 56.3075 150.931 56.2957C154.086 37.9233 156.995 19.5539 159.658 1.18741C167.213 1.2052 174.771 1.22002 182.332 1.23188C180.281 10.4062 178.586 19.3997 176.243 28.5859C176.877 26.0441 177.543 23.3711 176.243 28.5859C179.802 25.0276 184.433 20.5858 188.697 16.5768C193.21 16.5887 197.978 16.5709 202.485 16.5768C194.924 23.3434 188.829 30.5518 181.647 37.3303C184.15 43.6639 186.473 49.4905 189.173 56.3491C185.562 56.3431 179.284 56.3372 175.679 56.3313C174.261 52.9213 173.385 49.9353 171.796 46.5194ZM232.731 36.1471C228.846 42.7002 224.765 49.8019 220.874 56.3491C212.619 56.3372 205.583 56.3698 197.339 56.358C191.148 56.358 189.44 53.0666 192.189 46.5194C194.905 39.9722 197.571 33.428 200.186 26.8868C202.703 20.313 207.774 16.132 215.477 16.1498C223.11 16.1617 230.662 16.1735 238.135 16.1854C242.965 16.1943 244.175 19.0498 241.871 22.9816C240.332 25.6058 237.663 28.23 233.882 30.8454C231.066 32.8024 228.407 34.1782 225.614 36.1471C228.389 36.1471 229.985 36.1412 232.731 36.1471ZM228.283 26.8067C225.323 26.8008 223.252 26.8927 220.263 26.8868C218.615 30.1604 217.495 32.8676 215.829 36.1471C220.413 32.8736 223.604 30.0744 228.283 26.8067ZM150 131.5C148.648 137.184 145.889 144 142.5 144C135.781 144 136.225 132.006 129.5 132C130.283 116.077 132.613 78.3064 133.545 62.3892C142.956 62.4129 152.599 62.3655 162.01 62.3892C169.06 62.4069 169.981 65.1646 168.237 70.84C165.213 81.0581 153.558 119.687 150 131.5ZM151.091 81.3991C151.844 77.6748 152.606 74.8371 153.377 71.1069C151.367 71.1069 148.227 71.1069 148.227 71.1069C148.227 71.1069 147.002 77.6451 146.403 81.3635C148.265 81.3754 149.235 81.3872 151.091 81.3991ZM184.694 72.1743C179.908 72.1684 174.79 72.1803 170.017 72.1743C171.12 68.7703 172.46 65.3544 173.575 61.9444C178.71 61.9503 184.012 61.9385 189.142 61.9444C187.671 65.3544 186.147 68.7703 184.694 72.1743ZM169.127 75.7326C173.782 75.7385 178.693 75.7267 183.36 75.7326C178.794 87.0774 153.119 148.06 148.227 159.5C144.633 159.5 151.826 140 148.227 140C151.192 128.643 165.693 87.0834 169.127 75.7326ZM199.817 92.3852C196.531 98.0546 165.165 150.331 162.01 156C156.999 156 159.839 154 155 154C151.397 153.991 144.402 171.675 146.403 166C148.568 160.336 177.772 90.4607 180.091 84.7972C182.519 79.104 186.642 75.7326 191.366 75.7326C196.14 75.7385 200.285 75.7267 205.154 75.7326C208.481 75.7326 209.286 77.9832 207.276 81.3902C205.932 83.6586 203.789 85.9269 200.871 88.1953C198.742 89.8914 196.994 90.6772 194.924 92.3852C196.792 92.3852 197.889 92.3852 199.817 92.3852ZM197.593 84.6282C195.666 84.6282 195.049 84.6341 193.145 84.6282C191.704 87.4688 190.115 89.7936 188.697 92.6342C191.959 89.7936 194.165 87.4629 197.593 84.6282ZM115.082 104.323C115.357 108.308 114.254 110.292 111.764 110.292C109.694 110.286 107.621 110.28 105.546 110.274C103.064 110.274 100.608 108.282 99.9235 104.314C99.2059 100.323 98.4676 95.4482 97.7085 91.4689C96.9168 87.4748 98.8827 85.4822 101.854 85.4911C104.321 85.4911 106.791 85.4911 109.264 85.4911C112.226 85.5 113.872 88.391 114.192 92.3852C114.5 96.3645 114.797 100.344 115.082 104.323ZM107.302 97.9004C107.042 95.896 106.663 94.357 106.391 92.3585C105.21 92.3585 104.03 92.3585 102.85 92.3585C103.17 94.3511 103.43 95.9078 103.744 97.9004C104.871 97.9123 106.17 97.8945 107.302 97.9004ZM116.763 110.292C116.407 104.326 116.036 97.4675 115.651 91.4956C115.375 87.5015 116.718 85.5 119.69 85.5C122.655 85.5059 125.623 85.5089 128.594 85.5089C128.535 87.5015 128.475 90.3836 128.416 92.3763C126.762 92.3763 125.107 92.3763 123.452 92.3763C123.506 98.3422 123.556 104.314 123.604 110.292C121.326 110.292 119.046 110.292 116.763 110.292ZM37.6098 38.3444C34.5675 38.3384 31.6764 38.4066 28.6519 38.4066C20.1655 38.3888 15.1751 34.1723 10.3092 25.8994C7.88366 21.76 5.47888 17.6265 3.09486 13.4989C-1.49527 5.19043 1.47586 1.04508 11.8303 1.06287C25.9447 1.11031 39.7967 0.962058 53.9289 1.0095C54.8184 5.01252 55.708 9.46032 56.7532 13.9081C46.8316 13.8903 37.4913 13.9318 27.5935 13.9081C29.4141 18.0357 31.5312 21.8015 33.4289 25.935C41.1859 25.9528 48.9606 25.9676 56.7532 25.9795C66.0758 25.9972 71.8846 30.1337 74.2419 38.4066C80.1308 58.2379 103.744 140 103.744 140C103.744 140 102.5 135.5 105.546 147C95.79 147 99.0342 163.006 89 163C79.8197 147.373 38.1109 79.018 28.6519 63.3855C36.4267 63.3973 42.3779 63.4062 50.0637 63.4122C55.0541 63.4211 56.0593 60.1208 53.0704 53.5114C52.2816 51.7678 51.4959 50.0243 50.713 48.2807C47.7508 41.6624 43.3831 38.3532 37.6098 38.3444Z" fill="#FFA800"/>
<path d="M107.316 16.8348C107.577 20.1202 107.844 23.4057 108.116 26.6911C103.817 26.6792 99.5143 26.6704 95.2089 26.6644C96.223 33.2353 97.2549 39.8032 98.3045 46.3682C102.153 46.3741 106.002 46.38 109.851 46.386C110.148 49.6714 110.447 52.9569 110.749 56.2423C104.558 56.2304 97.4802 56.2216 91.2948 56.2156C85.1034 56.2067 81.0915 52.8976 79.2679 46.297C75.2827 31.1982 72.4776 16.1024 69.0736 1.00949C76.6289 1.02728 84.1842 1.04211 91.7396 1.05397C92.3919 6.30831 93.0739 11.5597 93.7856 16.8081C98.2927 16.82 102.803 16.8288 107.316 16.8348ZM110.91 26.7267C110.492 20.1439 115.037 16.8526 122.767 16.8615C133.069 16.8852 143.373 16.9059 153.68 16.9237C151.823 30.0359 150.777 43.145 148.76 56.2512C145.677 56.2749 141.7 56.2957 138.611 56.3135C138.729 54.991 138.842 53.6656 138.949 52.3371C137.668 54.9702 135.488 56.2779 132.401 56.269C129.306 56.269 126.21 56.266 123.114 56.2601C116.923 56.2512 112.715 52.9598 112.253 46.3949C111.796 39.8418 111.348 33.2857 110.91 26.7267ZM140.372 36.5919C140.662 33.3065 140.95 30.024 141.235 26.7445C138.181 26.7385 135.123 26.7326 132.063 26.7267C131.927 30.024 131.788 33.3183 131.645 36.6097C134.551 36.6038 137.46 36.5979 140.372 36.5919ZM171.796 46.5194C170.906 50.3801 170.461 52.604 169.718 56.3224C164.049 56.3164 156.6 56.3075 150.931 56.2957C154.086 37.9233 156.995 19.5539 159.658 1.18741C167.213 1.2052 174.771 1.22002 182.332 1.23188C180.281 10.4062 178.586 19.3997 176.243 28.5859C176.877 26.0441 177.543 23.3711 176.243 28.5859C179.802 25.0276 184.433 20.5858 188.697 16.5768C193.21 16.5887 197.978 16.5709 202.485 16.5768C194.924 23.3434 188.829 30.5518 181.647 37.3303C184.15 43.6639 186.473 49.4905 189.173 56.3491C185.562 56.3431 179.284 56.3372 175.679 56.3313C174.261 52.9213 173.385 49.9353 171.796 46.5194ZM232.731 36.1471C228.846 42.7002 224.765 49.8019 220.874 56.3491C212.619 56.3372 205.583 56.3698 197.339 56.358C191.148 56.358 189.44 53.0666 192.189 46.5194C194.905 39.9722 197.571 33.428 200.186 26.8868C202.703 20.313 207.774 16.132 215.477 16.1498C223.11 16.1617 230.662 16.1735 238.135 16.1854C242.965 16.1943 244.175 19.0498 241.871 22.9816C240.332 25.6058 237.663 28.23 233.882 30.8454C231.066 32.8024 228.407 34.1782 225.614 36.1471C228.389 36.1471 229.985 36.1412 232.731 36.1471ZM228.283 26.8067C225.323 26.8008 223.252 26.8927 220.263 26.8868C218.615 30.1604 217.495 32.8676 215.829 36.1471C220.413 32.8736 223.604 30.0744 228.283 26.8067ZM150 131.5C148.648 137.184 145.889 144 142.5 144C135.781 144 136.225 132.006 129.5 132C130.283 116.077 132.613 78.3064 133.545 62.3892C142.956 62.4129 152.599 62.3655 162.01 62.3892C169.06 62.4069 169.981 65.1646 168.237 70.84C165.213 81.0581 153.558 119.687 150 131.5ZM151.091 81.3991C151.844 77.6748 152.606 74.8371 153.377 71.1069C151.367 71.1069 148.227 71.1069 148.227 71.1069C148.227 71.1069 147.002 77.6451 146.403 81.3635C148.265 81.3754 149.235 81.3872 151.091 81.3991ZM184.694 72.1743C179.908 72.1684 174.79 72.1803 170.017 72.1743C171.12 68.7703 172.46 65.3544 173.575 61.9444C178.71 61.9503 184.012 61.9385 189.142 61.9444C187.671 65.3544 186.147 68.7703 184.694 72.1743ZM169.127 75.7326C173.782 75.7385 178.693 75.7267 183.36 75.7326C178.794 87.0774 153.119 148.06 148.227 159.5C144.633 159.5 151.826 140 148.227 140C151.192 128.643 165.693 87.0834 169.127 75.7326ZM199.817 92.3852C196.531 98.0546 165.165 150.331 162.01 156C156.999 156 159.839 154 155 154C151.397 153.991 144.402 171.675 146.403 166C148.568 160.336 177.772 90.4607 180.091 84.7972C182.519 79.104 186.642 75.7326 191.366 75.7326C196.14 75.7385 200.285 75.7267 205.154 75.7326C208.481 75.7326 209.286 77.9832 207.276 81.3902C205.932 83.6586 203.789 85.9269 200.871 88.1953C198.742 89.8914 196.994 90.6772 194.924 92.3852C196.792 92.3852 197.889 92.3852 199.817 92.3852ZM197.593 84.6282C195.666 84.6282 195.049 84.6341 193.145 84.6282C191.704 87.4688 190.115 89.7936 188.697 92.6342C191.959 89.7936 194.165 87.4629 197.593 84.6282ZM115.082 104.323C115.357 108.308 114.254 110.292 111.764 110.292C109.694 110.286 107.621 110.28 105.546 110.274C103.064 110.274 100.608 108.282 99.9235 104.314C99.2059 100.323 98.4676 95.4482 97.7085 91.4689C96.9168 87.4748 98.8827 85.4822 101.854 85.4911C104.321 85.4911 106.791 85.4911 109.264 85.4911C112.226 85.5 113.872 88.391 114.192 92.3852C114.5 96.3645 114.797 100.344 115.082 104.323ZM107.302 97.9004C107.042 95.896 106.663 94.357 106.391 92.3585C105.21 92.3585 104.03 92.3585 102.85 92.3585C103.17 94.3511 103.43 95.9078 103.744 97.9004C104.871 97.9123 106.17 97.8945 107.302 97.9004ZM116.763 110.292C116.407 104.326 116.036 97.4675 115.651 91.4956C115.375 87.5015 116.718 85.5 119.69 85.5C122.655 85.5059 125.623 85.5089 128.594 85.5089C128.535 87.5015 128.475 90.3836 128.416 92.3763C126.762 92.3763 125.107 92.3763 123.452 92.3763C123.506 98.3422 123.556 104.314 123.604 110.292C121.326 110.292 119.046 110.292 116.763 110.292ZM37.6098 38.3444C34.5675 38.3384 31.6764 38.4066 28.6519 38.4066C20.1655 38.3888 15.1751 34.1723 10.3092 25.8994C7.88366 21.76 5.47888 17.6265 3.09486 13.4989C-1.49527 5.19043 1.47586 1.04508 11.8303 1.06287C25.9447 1.11031 39.7967 0.962058 53.9289 1.0095C54.8184 5.01252 55.708 9.46032 56.7532 13.9081C46.8316 13.8903 37.4913 13.9318 27.5935 13.9081C29.4141 18.0357 31.5312 21.8015 33.4289 25.935C41.1859 25.9528 48.9606 25.9676 56.7532 25.9795C66.0758 25.9972 71.8846 30.1337 74.2419 38.4066C80.1308 58.2379 103.744 140 103.744 140C103.744 140 102.5 135.5 105.546 147C95.79 147 99.0342 163.006 89 163C79.8197 147.373 38.1109 79.018 28.6519 63.3855C36.4267 63.3973 42.3779 63.4062 50.0637 63.4122C55.0541 63.4211 56.0593 60.1208 53.0704 53.5114C52.2816 51.7678 51.4959 50.0243 50.713 48.2807C47.7508 41.6624 43.3831 38.3532 37.6098 38.3444Z" fill="#FFA800"/>
<path d="M107.316 16.8348C107.577 20.1202 107.844 23.4057 108.116 26.6911C103.817 26.6792 99.5143 26.6704 95.2089 26.6644C96.223 33.2353 97.2549 39.8032 98.3045 46.3682C102.153 46.3741 106.002 46.38 109.851 46.386C110.148 49.6714 110.447 52.9569 110.749 56.2423C104.558 56.2304 97.4802 56.2216 91.2948 56.2156C85.1034 56.2067 81.0915 52.8976 79.2679 46.297C75.2827 31.1982 72.4776 16.1024 69.0736 1.00949C76.6289 1.02728 84.1842 1.04211 91.7396 1.05397C92.3919 6.30831 93.0739 11.5597 93.7856 16.8081C98.2927 16.82 102.803 16.8288 107.316 16.8348ZM110.91 26.7267C110.492 20.1439 115.037 16.8526 122.767 16.8615C133.069 16.8852 143.373 16.9059 153.68 16.9237C151.823 30.0359 150.777 43.145 148.76 56.2512C145.677 56.2749 141.7 56.2957 138.611 56.3135C138.729 54.991 138.842 53.6656 138.949 52.3371C137.668 54.9702 135.488 56.2779 132.401 56.269C129.306 56.269 126.21 56.266 123.114 56.2601C116.923 56.2512 112.715 52.9598 112.253 46.3949C111.796 39.8418 111.348 33.2857 110.91 26.7267ZM140.372 36.5919C140.662 33.3065 140.95 30.024 141.235 26.7445C138.181 26.7385 135.123 26.7326 132.063 26.7267C131.927 30.024 131.788 33.3183 131.645 36.6097C134.551 36.6038 137.46 36.5979 140.372 36.5919ZM171.796 46.5194C170.906 50.3801 170.461 52.604 169.718 56.3224C164.049 56.3164 156.6 56.3075 150.931 56.2957C154.086 37.9233 156.995 19.5539 159.658 1.18741C167.213 1.2052 174.771 1.22002 182.332 1.23188C180.281 10.4062 178.586 19.3997 176.243 28.5859C176.877 26.0441 177.543 23.3711 176.243 28.5859C179.802 25.0276 184.433 20.5858 188.697 16.5768C193.21 16.5887 197.978 16.5709 202.485 16.5768C194.924 23.3434 188.829 30.5518 181.647 37.3303C184.15 43.6639 186.473 49.4905 189.173 56.3491C185.562 56.3431 179.284 56.3372 175.679 56.3313C174.261 52.9213 173.385 49.9353 171.796 46.5194ZM232.731 36.1471C228.846 42.7002 224.765 49.8019 220.874 56.3491C212.619 56.3372 205.583 56.3698 197.339 56.358C191.148 56.358 189.44 53.0666 192.189 46.5194C194.905 39.9722 197.571 33.428 200.186 26.8868C202.703 20.313 207.774 16.132 215.477 16.1498C223.11 16.1617 230.662 16.1735 238.135 16.1854C242.965 16.1943 244.175 19.0498 241.871 22.9816C240.332 25.6058 237.663 28.23 233.882 30.8454C231.066 32.8024 228.407 34.1782 225.614 36.1471C228.389 36.1471 229.985 36.1412 232.731 36.1471ZM228.283 26.8067C225.323 26.8008 223.252 26.8927 220.263 26.8868C218.615 30.1604 217.495 32.8676 215.829 36.1471C220.413 32.8736 223.604 30.0744 228.283 26.8067ZM150 131.5C148.648 137.184 145.889 144 142.5 144C135.781 144 136.225 132.006 129.5 132C130.283 116.077 132.613 78.3064 133.545 62.3892C142.956 62.4129 152.599 62.3655 162.01 62.3892C169.06 62.4069 169.981 65.1646 168.237 70.84C165.213 81.0581 153.558 119.687 150 131.5ZM151.091 81.3991C151.844 77.6748 152.606 74.8371 153.377 71.1069C151.367 71.1069 148.227 71.1069 148.227 71.1069C148.227 71.1069 147.002 77.6451 146.403 81.3635C148.265 81.3754 149.235 81.3872 151.091 81.3991ZM184.694 72.1743C179.908 72.1684 174.79 72.1803 170.017 72.1743C171.12 68.7703 172.46 65.3544 173.575 61.9444C178.71 61.9503 184.012 61.9385 189.142 61.9444C187.671 65.3544 186.147 68.7703 184.694 72.1743ZM169.127 75.7326C173.782 75.7385 178.693 75.7267 183.36 75.7326C178.794 87.0774 153.119 148.06 148.227 159.5C144.633 159.5 151.826 140 148.227 140C151.192 128.643 165.693 87.0834 169.127 75.7326ZM199.817 92.3852C196.531 98.0546 165.165 150.331 162.01 156C156.999 156 159.839 154 155 154C151.397 153.991 144.402 171.675 146.403 166C148.568 160.336 177.772 90.4607 180.091 84.7972C182.519 79.104 186.642 75.7326 191.366 75.7326C196.14 75.7385 200.285 75.7267 205.154 75.7326C208.481 75.7326 209.286 77.9832 207.276 81.3902C205.932 83.6586 203.789 85.9269 200.871 88.1953C198.742 89.8914 196.994 90.6772 194.924 92.3852C196.792 92.3852 197.889 92.3852 199.817 92.3852ZM197.593 84.6282C195.666 84.6282 195.049 84.6341 193.145 84.6282C191.704 87.4688 190.115 89.7936 188.697 92.6342C191.959 89.7936 194.165 87.4629 197.593 84.6282ZM115.082 104.323C115.357 108.308 114.254 110.292 111.764 110.292C109.694 110.286 107.621 110.28 105.546 110.274C103.064 110.274 100.608 108.282 99.9235 104.314C99.2059 100.323 98.4676 95.4482 97.7085 91.4689C96.9168 87.4748 98.8827 85.4822 101.854 85.4911C104.321 85.4911 106.791 85.4911 109.264 85.4911C112.226 85.5 113.872 88.391 114.192 92.3852C114.5 96.3645 114.797 100.344 115.082 104.323ZM107.302 97.9004C107.042 95.896 106.663 94.357 106.391 92.3585C105.21 92.3585 104.03 92.3585 102.85 92.3585C103.17 94.3511 103.43 95.9078 103.744 97.9004C104.871 97.9123 106.17 97.8945 107.302 97.9004ZM116.763 110.292C116.407 104.326 116.036 97.4675 115.651 91.4956C115.375 87.5015 116.718 85.5 119.69 85.5C122.655 85.5059 125.623 85.5089 128.594 85.5089C128.535 87.5015 128.475 90.3836 128.416 92.3763C126.762 92.3763 125.107 92.3763 123.452 92.3763C123.506 98.3422 123.556 104.314 123.604 110.292C121.326 110.292 119.046 110.292 116.763 110.292ZM37.6098 38.3444C34.5675 38.3384 31.6764 38.4066 28.6519 38.4066C20.1655 38.3888 15.1751 34.1723 10.3092 25.8994C7.88366 21.76 5.47888 17.6265 3.09486 13.4989C-1.49527 5.19043 1.47586 1.04508 11.8303 1.06287C25.9447 1.11031 39.7967 0.962058 53.9289 1.0095C54.8184 5.01252 55.708 9.46032 56.7532 13.9081C46.8316 13.8903 37.4913 13.9318 27.5935 13.9081C29.4141 18.0357 31.5312 21.8015 33.4289 25.935C41.1859 25.9528 48.9606 25.9676 56.7532 25.9795C66.0758 25.9972 71.8846 30.1337 74.2419 38.4066C80.1308 58.2379 103.744 140 103.744 140C103.744 140 102.5 135.5 105.546 147C95.79 147 99.0342 163.006 89 163C79.8197 147.373 38.1109 79.018 28.6519 63.3855C36.4267 63.3973 42.3779 63.4062 50.0637 63.4122C55.0541 63.4211 56.0593 60.1208 53.0704 53.5114C52.2816 51.7678 51.4959 50.0243 50.713 48.2807C47.7508 41.6624 43.3831 38.3532 37.6098 38.3444Z" fill="#FFA800"/>
<path d="M107.316 16.8348C107.577 20.1202 107.844 23.4057 108.116 26.6911C103.817 26.6792 99.5143 26.6704 95.2089 26.6644C96.223 33.2353 97.2549 39.8032 98.3045 46.3682C102.153 46.3741 106.002 46.38 109.851 46.386C110.148 49.6714 110.447 52.9569 110.749 56.2423C104.558 56.2304 97.4802 56.2216 91.2948 56.2156C85.1034 56.2067 81.0915 52.8976 79.2679 46.297C75.2827 31.1982 72.4776 16.1024 69.0736 1.00949C76.6289 1.02728 84.1842 1.04211 91.7396 1.05397C92.3919 6.30831 93.0739 11.5597 93.7856 16.8081C98.2927 16.82 102.803 16.8288 107.316 16.8348ZM110.91 26.7267C110.492 20.1439 115.037 16.8526 122.767 16.8615C133.069 16.8852 143.373 16.9059 153.68 16.9237C151.823 30.0359 150.777 43.145 148.76 56.2512C145.677 56.2749 141.7 56.2957 138.611 56.3135C138.729 54.991 138.842 53.6656 138.949 52.3371C137.668 54.9702 135.488 56.2779 132.401 56.269C129.306 56.269 126.21 56.266 123.114 56.2601C116.923 56.2512 112.715 52.9598 112.253 46.3949C111.796 39.8418 111.348 33.2857 110.91 26.7267ZM140.372 36.5919C140.662 33.3065 140.95 30.024 141.235 26.7445C138.181 26.7385 135.123 26.7326 132.063 26.7267C131.927 30.024 131.788 33.3183 131.645 36.6097C134.551 36.6038 137.46 36.5979 140.372 36.5919ZM171.796 46.5194C170.906 50.3801 170.461 52.604 169.718 56.3224C164.049 56.3164 156.6 56.3075 150.931 56.2957C154.086 37.9233 156.995 19.5539 159.658 1.18741C167.213 1.2052 174.771 1.22002 182.332 1.23188C180.281 10.4062 178.586 19.3997 176.243 28.5859C176.877 26.0441 177.543 23.3711 176.243 28.5859C179.802 25.0276 184.433 20.5858 188.697 16.5768C193.21 16.5887 197.978 16.5709 202.485 16.5768C194.924 23.3434 188.829 30.5518 181.647 37.3303C184.15 43.6639 186.473 49.4905 189.173 56.3491C185.562 56.3431 179.284 56.3372 175.679 56.3313C174.261 52.9213 173.385 49.9353 171.796 46.5194ZM232.731 36.1471C228.846 42.7002 224.765 49.8019 220.874 56.3491C212.619 56.3372 205.583 56.3698 197.339 56.358C191.148 56.358 189.44 53.0666 192.189 46.5194C194.905 39.9722 197.571 33.428 200.186 26.8868C202.703 20.313 207.774 16.132 215.477 16.1498C223.11 16.1617 230.662 16.1735 238.135 16.1854C242.965 16.1943 244.175 19.0498 241.871 22.9816C240.332 25.6058 237.663 28.23 233.882 30.8454C231.066 32.8024 228.407 34.1782 225.614 36.1471C228.389 36.1471 229.985 36.1412 232.731 36.1471ZM228.283 26.8067C225.323 26.8008 223.252 26.8927 220.263 26.8868C218.615 30.1604 217.495 32.8676 215.829 36.1471C220.413 32.8736 223.604 30.0744 228.283 26.8067ZM150 131.5C148.648 137.184 145.889 144 142.5 144C135.781 144 136.225 132.006 129.5 132C130.283 116.077 132.613 78.3064 133.545 62.3892C142.956 62.4129 152.599 62.3655 162.01 62.3892C169.06 62.4069 169.981 65.1646 168.237 70.84C165.213 81.0581 153.558 119.687 150 131.5ZM151.091 81.3991C151.844 77.6748 152.606 74.8371 153.377 71.1069C151.367 71.1069 148.227 71.1069 148.227 71.1069C148.227 71.1069 147.002 77.6451 146.403 81.3635C148.265 81.3754 149.235 81.3872 151.091 81.3991ZM184.694 72.1743C179.908 72.1684 174.79 72.1803 170.017 72.1743C171.12 68.7703 172.46 65.3544 173.575 61.9444C178.71 61.9503 184.012 61.9385 189.142 61.9444C187.671 65.3544 186.147 68.7703 184.694 72.1743ZM169.127 75.7326C173.782 75.7385 178.693 75.7267 183.36 75.7326C178.794 87.0774 153.119 148.06 148.227 159.5C144.633 159.5 151.826 140 148.227 140C151.192 128.643 165.693 87.0834 169.127 75.7326ZM199.817 92.3852C196.531 98.0546 165.165 150.331 162.01 156C156.999 156 159.839 154 155 154C151.397 153.991 144.402 171.675 146.403 166C148.568 160.336 177.772 90.4607 180.091 84.7972C182.519 79.104 186.642 75.7326 191.366 75.7326C196.14 75.7385 200.285 75.7267 205.154 75.7326C208.481 75.7326 209.286 77.9832 207.276 81.3902C205.932 83.6586 203.789 85.9269 200.871 88.1953C198.742 89.8914 196.994 90.6772 194.924 92.3852C196.792 92.3852 197.889 92.3852 199.817 92.3852ZM197.593 84.6282C195.666 84.6282 195.049 84.6341 193.145 84.6282C191.704 87.4688 190.115 89.7936 188.697 92.6342C191.959 89.7936 194.165 87.4629 197.593 84.6282ZM115.082 104.323C115.357 108.308 114.254 110.292 111.764 110.292C109.694 110.286 107.621 110.28 105.546 110.274C103.064 110.274 100.608 108.282 99.9235 104.314C99.2059 100.323 98.4676 95.4482 97.7085 91.4689C96.9168 87.4748 98.8827 85.4822 101.854 85.4911C104.321 85.4911 106.791 85.4911 109.264 85.4911C112.226 85.5 113.872 88.391 114.192 92.3852C114.5 96.3645 114.797 100.344 115.082 104.323ZM107.302 97.9004C107.042 95.896 106.663 94.357 106.391 92.3585C105.21 92.3585 104.03 92.3585 102.85 92.3585C103.17 94.3511 103.43 95.9078 103.744 97.9004C104.871 97.9123 106.17 97.8945 107.302 97.9004ZM116.763 110.292C116.407 104.326 116.036 97.4675 115.651 91.4956C115.375 87.5015 116.718 85.5 119.69 85.5C122.655 85.5059 125.623 85.5089 128.594 85.5089C128.535 87.5015 128.475 90.3836 128.416 92.3763C126.762 92.3763 125.107 92.3763 123.452 92.3763C123.506 98.3422 123.556 104.314 123.604 110.292C121.326 110.292 119.046 110.292 116.763 110.292ZM37.6098 38.3444C34.5675 38.3384 31.6764 38.4066 28.6519 38.4066C20.1655 38.3888 15.1751 34.1723 10.3092 25.8994C7.88366 21.76 5.47888 17.6265 3.09486 13.4989C-1.49527 5.19043 1.47586 1.04508 11.8303 1.06287C25.9447 1.11031 39.7967 0.962058 53.9289 1.0095C54.8184 5.01252 55.708 9.46032 56.7532 13.9081C46.8316 13.8903 37.4913 13.9318 27.5935 13.9081C29.4141 18.0357 31.5312 21.8015 33.4289 25.935C41.1859 25.9528 48.9606 25.9676 56.7532 25.9795C66.0758 25.9972 71.8846 30.1337 74.2419 38.4066C80.1308 58.2379 103.744 140 103.744 140C103.744 140 102.5 135.5 105.546 147C95.79 147 99.0342 163.006 89 163C79.8197 147.373 38.1109 79.018 28.6519 63.3855C36.4267 63.3973 42.3779 63.4062 50.0637 63.4122C55.0541 63.4211 56.0593 60.1208 53.0704 53.5114C52.2816 51.7678 51.4959 50.0243 50.713 48.2807C47.7508 41.6624 43.3831 38.3532 37.6098 38.3444Z" fill="#FFA800"/>
<path d="M107.316 16.8348C107.577 20.1202 107.844 23.4057 108.116 26.6911C103.817 26.6792 99.5143 26.6704 95.2089 26.6644C96.223 33.2353 97.2549 39.8032 98.3045 46.3682C102.153 46.3741 106.002 46.38 109.851 46.386C110.148 49.6714 110.447 52.9569 110.749 56.2423C104.558 56.2304 97.4802 56.2216 91.2948 56.2156C85.1034 56.2067 81.0915 52.8976 79.2679 46.297C75.2827 31.1982 72.4776 16.1024 69.0736 1.00949C76.6289 1.02728 84.1842 1.04211 91.7396 1.05397C92.3919 6.30831 93.0739 11.5597 93.7856 16.8081C98.2927 16.82 102.803 16.8288 107.316 16.8348ZM110.91 26.7267C110.492 20.1439 115.037 16.8526 122.767 16.8615C133.069 16.8852 143.373 16.9059 153.68 16.9237C151.823 30.0359 150.777 43.145 148.76 56.2512C145.677 56.2749 141.7 56.2957 138.611 56.3135C138.729 54.991 138.842 53.6656 138.949 52.3371C137.668 54.9702 135.488 56.2779 132.401 56.269C129.306 56.269 126.21 56.266 123.114 56.2601C116.923 56.2512 112.715 52.9598 112.253 46.3949C111.796 39.8418 111.348 33.2857 110.91 26.7267ZM140.372 36.5919C140.662 33.3065 140.95 30.024 141.235 26.7445C138.181 26.7385 135.123 26.7326 132.063 26.7267C131.927 30.024 131.788 33.3183 131.645 36.6097C134.551 36.6038 137.46 36.5979 140.372 36.5919ZM171.796 46.5194C170.906 50.3801 170.461 52.604 169.718 56.3224C164.049 56.3164 156.6 56.3075 150.931 56.2957C154.086 37.9233 156.995 19.5539 159.658 1.18741C167.213 1.2052 174.771 1.22002 182.332 1.23188C180.281 10.4062 178.586 19.3997 176.243 28.5859C176.877 26.0441 177.543 23.3711 176.243 28.5859C179.802 25.0276 184.433 20.5858 188.697 16.5768C193.21 16.5887 197.978 16.5709 202.485 16.5768C194.924 23.3434 188.829 30.5518 181.647 37.3303C184.15 43.6639 186.473 49.4905 189.173 56.3491C185.562 56.3431 179.284 56.3372 175.679 56.3313C174.261 52.9213 173.385 49.9353 171.796 46.5194ZM232.731 36.1471C228.846 42.7002 224.765 49.8019 220.874 56.3491C212.619 56.3372 205.583 56.3698 197.339 56.358C191.148 56.358 189.44 53.0666 192.189 46.5194C194.905 39.9722 197.571 33.428 200.186 26.8868C202.703 20.313 207.774 16.132 215.477 16.1498C223.11 16.1617 230.662 16.1735 238.135 16.1854C242.965 16.1943 244.175 19.0498 241.871 22.9816C240.332 25.6058 237.663 28.23 233.882 30.8454C231.066 32.8024 228.407 34.1782 225.614 36.1471C228.389 36.1471 229.985 36.1412 232.731 36.1471ZM228.283 26.8067C225.323 26.8008 223.252 26.8927 220.263 26.8868C218.615 30.1604 217.495 32.8676 215.829 36.1471C220.413 32.8736 223.604 30.0744 228.283 26.8067ZM150 131.5C148.648 137.184 145.889 144 142.5 144C135.781 144 136.225 132.006 129.5 132C130.283 116.077 132.613 78.3064 133.545 62.3892C142.956 62.4129 152.599 62.3655 162.01 62.3892C169.06 62.4069 169.981 65.1646 168.237 70.84C165.213 81.0581 153.558 119.687 150 131.5ZM151.091 81.3991C151.844 77.6748 152.606 74.8371 153.377 71.1069C151.367 71.1069 148.227 71.1069 148.227 71.1069C148.227 71.1069 147.002 77.6451 146.403 81.3635C148.265 81.3754 149.235 81.3872 151.091 81.3991ZM184.694 72.1743C179.908 72.1684 174.79 72.1803 170.017 72.1743C171.12 68.7703 172.46 65.3544 173.575 61.9444C178.71 61.9503 184.012 61.9385 189.142 61.9444C187.671 65.3544 186.147 68.7703 184.694 72.1743ZM169.127 75.7326C173.782 75.7385 178.693 75.7267 183.36 75.7326C178.794 87.0774 153.119 148.06 148.227 159.5C144.633 159.5 151.826 140 148.227 140C151.192 128.643 165.693 87.0834 169.127 75.7326ZM199.817 92.3852C196.531 98.0546 165.165 150.331 162.01 156C156.999 156 159.839 154 155 154C151.397 153.991 144.402 171.675 146.403 166C148.568 160.336 177.772 90.4607 180.091 84.7972C182.519 79.104 186.642 75.7326 191.366 75.7326C196.14 75.7385 200.285 75.7267 205.154 75.7326C208.481 75.7326 209.286 77.9832 207.276 81.3902C205.932 83.6586 203.789 85.9269 200.871 88.1953C198.742 89.8914 196.994 90.6772 194.924 92.3852C196.792 92.3852 197.889 92.3852 199.817 92.3852ZM197.593 84.6282C195.666 84.6282 195.049 84.6341 193.145 84.6282C191.704 87.4688 190.115 89.7936 188.697 92.6342C191.959 89.7936 194.165 87.4629 197.593 84.6282ZM115.082 104.323C115.357 108.308 114.254 110.292 111.764 110.292C109.694 110.286 107.621 110.28 105.546 110.274C103.064 110.274 100.608 108.282 99.9235 104.314C99.2059 100.323 98.4676 95.4482 97.7085 91.4689C96.9168 87.4748 98.8827 85.4822 101.854 85.4911C104.321 85.4911 106.791 85.4911 109.264 85.4911C112.226 85.5 113.872 88.391 114.192 92.3852C114.5 96.3645 114.797 100.344 115.082 104.323ZM107.302 97.9004C107.042 95.896 106.663 94.357 106.391 92.3585C105.21 92.3585 104.03 92.3585 102.85 92.3585C103.17 94.3511 103.43 95.9078 103.744 97.9004C104.871 97.9123 106.17 97.8945 107.302 97.9004ZM116.763 110.292C116.407 104.326 116.036 97.4675 115.651 91.4956C115.375 87.5015 116.718 85.5 119.69 85.5C122.655 85.5059 125.623 85.5089 128.594 85.5089C128.535 87.5015 128.475 90.3836 128.416 92.3763C126.762 92.3763 125.107 92.3763 123.452 92.3763C123.506 98.3422 123.556 104.314 123.604 110.292C121.326 110.292 119.046 110.292 116.763 110.292ZM37.6098 38.3444C34.5675 38.3384 31.6764 38.4066 28.6519 38.4066C20.1655 38.3888 15.1751 34.1723 10.3092 25.8994C7.88366 21.76 5.47888 17.6265 3.09486 13.4989C-1.49527 5.19043 1.47586 1.04508 11.8303 1.06287C25.9447 1.11031 39.7967 0.962058 53.9289 1.0095C54.8184 5.01252 55.708 9.46032 56.7532 13.9081C46.8316 13.8903 37.4913 13.9318 27.5935 13.9081C29.4141 18.0357 31.5312 21.8015 33.4289 25.935C41.1859 25.9528 48.9606 25.9676 56.7532 25.9795C66.0758 25.9972 71.8846 30.1337 74.2419 38.4066C80.1308 58.2379 103.744 140 103.744 140C103.744 140 102.5 135.5 105.546 147C95.79 147 99.0342 163.006 89 163C79.8197 147.373 38.1109 79.018 28.6519 63.3855C36.4267 63.3973 42.3779 63.4062 50.0637 63.4122C55.0541 63.4211 56.0593 60.1208 53.0704 53.5114C52.2816 51.7678 51.4959 50.0243 50.713 48.2807C47.7508 41.6624 43.3831 38.3532 37.6098 38.3444Z" fill="#FFA800"/>
<path d="M176.243 28.5859C178.586 19.3997 180.281 10.4062 182.332 1.23188C174.771 1.22002 167.213 1.2052 159.658 1.18741C156.995 19.5539 154.086 37.9233 150.931 56.2957C156.6 56.3075 164.049 56.3164 169.718 56.3224C170.461 52.604 170.906 50.3801 171.796 46.5194C173.385 49.9353 174.261 52.9213 175.679 56.3313C179.284 56.3372 185.562 56.3431 189.173 56.3491C186.473 49.4905 184.15 43.6639 181.647 37.3303C188.829 30.5518 194.924 23.3434 202.485 16.5768C197.978 16.5709 193.21 16.5887 188.697 16.5768C184.433 20.5858 179.802 25.0276 176.243 28.5859ZM176.243 28.5859C177.543 23.3711 176.877 26.0441 176.243 28.5859ZM107.316 16.8348C107.577 20.1202 107.844 23.4057 108.116 26.6911C103.817 26.6792 99.5143 26.6704 95.2089 26.6644C96.223 33.2353 97.2549 39.8032 98.3045 46.3682C102.153 46.3741 106.002 46.38 109.851 46.386C110.148 49.6714 110.447 52.9569 110.749 56.2423C104.558 56.2304 97.4802 56.2216 91.2948 56.2156C85.1035 56.2067 81.0915 52.8976 79.2679 46.297C75.2827 31.1982 72.4776 16.1024 69.0736 1.00949C76.6289 1.02728 84.1842 1.04211 91.7396 1.05397C92.3919 6.30831 93.0739 11.5597 93.7856 16.8081C98.2927 16.82 102.803 16.8288 107.316 16.8348ZM110.91 26.7267C110.491 20.1439 115.037 16.8526 122.767 16.8615C133.069 16.8852 143.373 16.9059 153.68 16.9237C151.823 30.0359 150.777 43.145 148.76 56.2512C145.677 56.2749 141.7 56.2957 138.611 56.3135C138.729 54.991 138.842 53.6655 138.949 52.3371C137.668 54.9702 135.488 56.2779 132.401 56.269C129.306 56.269 126.21 56.266 123.114 56.2601C116.923 56.2512 112.715 52.9598 112.253 46.3949C111.796 39.8418 111.348 33.2857 110.91 26.7267ZM140.372 36.5919C140.662 33.3065 140.95 30.024 141.235 26.7445C138.181 26.7385 135.123 26.7326 132.063 26.7267C131.927 30.024 131.788 33.3183 131.645 36.6097C134.551 36.6038 137.46 36.5978 140.372 36.5919ZM232.731 36.1471C228.846 42.7002 224.765 49.8019 220.874 56.3491C212.619 56.3372 205.583 56.3698 197.339 56.358C191.148 56.358 189.44 53.0666 192.189 46.5194C194.905 39.9722 197.571 33.428 200.186 26.8868C202.703 20.313 207.774 16.132 215.477 16.1498C223.11 16.1617 230.662 16.1735 238.135 16.1854C242.965 16.1943 244.175 19.0498 241.871 22.9816C240.332 25.6058 237.663 28.23 233.882 30.8454C231.066 32.8024 228.407 34.1782 225.614 36.1471C228.389 36.1471 229.985 36.1412 232.731 36.1471ZM228.283 26.8067C225.323 26.8008 223.252 26.8927 220.263 26.8868C218.615 30.1604 217.495 32.8676 215.829 36.1471C220.413 32.8736 223.604 30.0744 228.283 26.8067ZM150 131.5C148.648 137.184 145.889 144 142.5 144C135.781 144 136.225 132.006 129.5 132C130.283 116.077 132.613 78.3064 133.545 62.3892C142.956 62.4129 152.599 62.3655 162.01 62.3892C169.06 62.4069 169.981 65.1646 168.237 70.84C165.213 81.0581 153.558 119.687 150 131.5ZM151.091 81.3991C151.844 77.6748 152.606 74.8371 153.377 71.1069C151.367 71.1069 148.227 71.1069 148.227 71.1069C148.227 71.1069 147.002 77.6451 146.403 81.3635C148.265 81.3754 149.235 81.3872 151.091 81.3991ZM184.694 72.1743C179.908 72.1684 174.79 72.1803 170.017 72.1743C171.12 68.7703 172.46 65.3544 173.575 61.9444C178.71 61.9503 184.012 61.9385 189.142 61.9444C187.671 65.3544 186.147 68.7703 184.694 72.1743ZM169.127 75.7326C173.782 75.7385 178.693 75.7267 183.36 75.7326C178.794 87.0774 153.119 148.06 148.227 159.5C144.633 159.5 151.826 140 148.227 140C151.192 128.643 165.693 87.0834 169.127 75.7326ZM199.817 92.3852C196.531 98.0546 165.165 150.331 162.01 156C156.999 156 159.839 154 155 154C151.397 153.991 144.402 171.675 146.403 166C148.568 160.336 177.772 90.4607 180.091 84.7972C182.519 79.104 186.642 75.7326 191.366 75.7326C196.14 75.7385 200.285 75.7267 205.154 75.7326C208.481 75.7326 209.286 77.9832 207.276 81.3902C205.932 83.6586 203.789 85.9269 200.871 88.1953C198.742 89.8914 196.994 90.6772 194.924 92.3852C196.792 92.3852 197.889 92.3852 199.817 92.3852ZM197.593 84.6282C195.666 84.6282 195.049 84.6341 193.145 84.6282C191.704 87.4689 190.115 89.7936 188.697 92.6342C191.959 89.7936 194.165 87.4629 197.593 84.6282ZM115.082 104.323C115.357 108.308 114.254 110.292 111.764 110.292C109.694 110.286 107.621 110.28 105.546 110.274C103.064 110.274 100.608 108.282 99.9235 104.314C99.206 100.323 98.4676 95.4482 97.7085 91.4689C96.9168 87.4748 98.8827 85.4822 101.854 85.4911C104.321 85.4911 106.791 85.4911 109.264 85.4911C112.226 85.5 113.872 88.391 114.192 92.3852C114.5 96.3645 114.797 100.344 115.082 104.323ZM107.302 97.9004C107.042 95.896 106.663 94.357 106.391 92.3585C105.21 92.3585 104.03 92.3585 102.85 92.3585C103.17 94.3511 103.43 95.9078 103.744 97.9004C104.871 97.9123 106.17 97.8945 107.302 97.9004ZM116.763 110.292C116.407 104.326 116.036 97.4675 115.651 91.4956C115.375 87.5015 116.718 85.5 119.69 85.5C122.655 85.5059 125.623 85.5089 128.594 85.5089C128.535 87.5015 128.475 90.3836 128.416 92.3763C126.762 92.3763 125.107 92.3763 123.452 92.3763C123.506 98.3422 123.556 104.314 123.604 110.292C121.326 110.292 119.046 110.292 116.763 110.292ZM37.6098 38.3444C34.5675 38.3384 31.6764 38.4066 28.6519 38.4066C20.1655 38.3888 15.1751 34.1723 10.3092 25.8994C7.88366 21.76 5.47888 17.6265 3.09486 13.4989C-1.49527 5.19043 1.47586 1.04508 11.8303 1.06287C25.9447 1.11031 39.7967 0.962058 53.9289 1.0095C54.8184 5.01252 55.708 9.46032 56.7532 13.9081C46.8316 13.8903 37.4913 13.9318 27.5935 13.9081C29.4141 18.0357 31.5312 21.8015 33.4289 25.935C41.1859 25.9528 48.9606 25.9676 56.7532 25.9795C66.0758 25.9972 71.8846 30.1337 74.2419 38.4066C80.1308 58.2379 103.744 140 103.744 140C103.744 140 102.5 135.5 105.546 147C95.79 147 99.0342 163.006 89 163C79.8197 147.373 38.1109 79.018 28.6519 63.3855C36.4267 63.3973 42.3779 63.4062 50.0637 63.4122C55.0541 63.4211 56.0593 60.1208 53.0704 53.5114C52.2816 51.7678 51.4959 50.0243 50.713 48.2807C47.7508 41.6624 43.3831 38.3532 37.6098 38.3444Z" stroke="#D73424" stroke-width="1.5"/>
<circle cx="126.264" cy="169.464" r="49.9174" fill="#FDF8F3"/>
<circle cx="126.264" cy="169.464" r="48.1961" fill="#5ABC69"/>
<mask id="mask0" mask-type="alpha" maskUnits="userSpaceOnUse" x="78" y="121" width="97" height="97">
<circle cx="126.5" cy="169.5" r="48.5" fill="#5ABC69"/>
</mask>
<g mask="url(#mask0)">
<path d="M107.5 170L126 218L89.5 170H93.5L69 130.5L98 122.5L112 170H107.5Z" fill="#FDF8F3"/>
<path d="M132 170L126 218L142.5 170H139L154.5 116.5H130.5L128 170H132Z" fill="#FDF8F3"/>
<path d="M149 170L126 217.5L157 170H154L179 127L161.5 129L145 170H149Z" fill="#FDF8F3"/>
</g>
</svg>
